<?xml version="1.0" standalone="no"?>
<!DOCTYPE svg PUBLIC "-//W3C//DTD SVG 20010904//EN"
 "http://www.w3.org/TR/2001/REC-SVG-20010904/DTD/svg10.dtd">
<svg version="1.0" xmlns="http://www.w3.org/2000/svg"
 width="512.000000pt" height="512.000000pt" viewBox="0 0 512.000000 512.000000"
 preserveAspectRatio="xMidYMid meet">
<metadata>
Created by potrace 1.15, written by Peter Selinger 2001-2017
</metadata>
<g transform="translate(0.000000,512.000000) scale(0.100000,-0.100000)"
fill="#000000" stroke="none">
<path d="M2280 5111 c-30 -5 -67 -6 -82 -3 -16 2 -34 0 -40 -5 -7 -6 -42 -16
-78 -22 -36 -7 -73 -15 -83 -18 -18 -5 -18 -4 -2 21 17 26 17 26 -7 26 -15 0
-44 -16 -69 -38 -30 -27 -67 -46 -116 -61 -40 -12 -80 -24 -90 -28 -10 -3 8
21 40 55 31 33 57 63 57 66 0 3 -11 6 -25 6 -19 0 -51 -24 -118 -89 -82 -79
-105 -94 -212 -145 l-120 -57 138 139 c75 76 137 142 137 145 0 4 -12 7 -26 7
-21 0 -72 -44 -243 -212 -143 -141 -252 -238 -321 -288 -141 -100 -410 -369
-510 -510 -50 -69 -147 -178 -288 -321 -168 -171 -212 -222 -212 -243 0 -14 3
-26 7 -26 3 0 69 62 145 138 l139 137 -57 -120 c-51 -107 -66 -130 -145 -212
-65 -67 -89 -99 -89 -118 0 -14 3 -25 6 -25 3 0 33 26 66 58 34 31 58 49 55
39 -4 -10 -16 -50 -28 -90 -15 -49 -34 -86 -61 -116 -22 -25 -38 -54 -38 -69
0 -24 0 -24 26 -7 25 16 26 16 21 -2 -3 -10 -11 -47 -18 -83 -6 -36 -15 -69
-19 -75 -22 -32 -18 -856 4 -852 6 1 14 -22 19 -50 7 -46 6 -57 -13 -83 -12
-16 -20 -39 -18 -51 l3 -21 27 21 26 21 12 -50 12 -50 -41 -46 c-23 -27 -41
-57 -41 -70 0 -13 2 -24 5 -24 3 0 25 18 49 40 24 23 46 37 49 33 2 -4 10 -25
17 -46 l12 -38 -66 -70 c-45 -47 -66 -77 -66 -94 0 -14 3 -25 6 -25 3 0 37 30
75 67 38 36 71 64 72 62 2 -2 11 -22 19 -44 l16 -40 -94 -97 c-69 -71 -94
-104 -94 -122 0 -15 3 -26 6 -26 4 0 51 44 105 97 54 53 100 95 102 92 1 -2
11 -21 20 -43 l18 -39 -126 -127 c-96 -99 -125 -134 -125 -154 0 -38 15 -27
154 113 l120 120 24 -40 24 -41 -161 -163 c-126 -127 -161 -168 -161 -189 0
-14 3 -26 7 -26 4 0 82 74 173 165 l167 166 25 -38 26 -38 -199 -201 c-158
-160 -199 -206 -199 -228 0 -14 3 -26 7 -26 4 0 100 92 213 206 l207 205 25
-38 26 -38 -239 -241 c-192 -193 -239 -246 -239 -267 0 -15 3 -27 7 -27 4 0
118 111 254 246 l247 247 26 -29 c14 -16 26 -33 26 -39 0 -5 -126 -136 -280
-290 -227 -228 -280 -287 -280 -308 0 -15 3 -27 7 -27 4 0 139 131 300 292
l293 292 29 -34 30 -35 -330 -331 c-270 -271 -329 -335 -329 -357 0 -23 3 -26
18 -18 9 5 165 158 347 340 l329 331 33 -32 33 -32 -355 -356 c-195 -196 -355
-359 -355 -363 0 -4 12 -7 27 -7 22 0 90 63 373 345 l346 345 32 -33 32 -33
-296 -294 c-162 -162 -300 -303 -305 -312 -8 -15 -5 -18 17 -18 23 0 82 54
325 297 l298 296 36 -28 37 -28 -261 -261 c-144 -144 -261 -265 -261 -269 0
-4 12 -7 27 -7 21 0 75 49 278 250 138 137 255 250 260 250 6 -1 23 -12 40
-25 l30 -25 -218 -218 c-119 -120 -217 -221 -217 -225 0 -4 12 -7 27 -7 21 0
69 43 239 211 l213 212 35 -23 c20 -12 36 -25 36 -28 0 -4 -75 -81 -166 -172
-91 -91 -170 -173 -175 -182 -8 -15 -5 -18 17 -18 21 0 62 35 198 170 95 94
176 170 182 170 5 0 24 -9 43 -21 l34 -20 -142 -143 c-77 -78 -141 -146 -141
-149 0 -4 12 -7 26 -7 20 0 58 32 165 137 l139 136 40 -18 c22 -10 40 -21 40
-24 0 -4 -43 -49 -96 -101 -114 -114 -125 -130 -89 -130 20 0 53 26 134 105
l108 105 41 -17 c23 -9 42 -19 42 -22 0 -4 -30 -36 -66 -71 -83 -83 -94 -100
-59 -100 18 0 48 22 105 76 l79 76 38 -12 c21 -7 42 -15 46 -17 4 -3 -15 -29
-42 -58 -28 -30 -51 -56 -51 -59 0 -3 11 -6 24 -6 15 0 45 19 80 51 l56 51 49
-13 50 -13 -31 -35 c-32 -36 -32 -36 -9 -39 15 -2 38 8 63 28 38 31 40 31 88
20 44 -11 49 -14 39 -31 -8 -16 -6 -19 11 -19 11 0 31 6 43 14 17 11 33 12 77
4 66 -13 701 -19 715 -8 6 5 39 13 75 20 36 6 73 13 83 16 18 6 18 5 2 -20
-17 -26 -17 -26 7 -26 14 0 43 16 66 36 26 22 65 42 106 54 35 10 75 21 87 25
19 6 12 -5 -28 -48 -29 -31 -53 -58 -53 -61 0 -3 11 -6 25 -6 18 0 50 23 110
81 76 73 96 86 196 129 l112 49 -122 -123 c-66 -68 -121 -126 -121 -129 0 -4
12 -7 26 -7 21 0 64 37 203 174 134 133 201 191 281 243 287 189 551 454 739
743 46 69 109 142 237 271 137 139 174 182 174 203 0 14 -3 26 -7 26 -3 0 -62
-55 -130 -122 l-123 -122 49 112 c43 101 57 121 130 197 58 60 81 92 81 110 0
14 -3 25 -6 25 -3 0 -30 -24 -61 -52 -43 -41 -54 -48 -48 -29 4 12 15 52 25
87 12 41 32 80 54 106 20 23 36 52 36 66 0 24 -1 24 -25 8 -25 -16 -25 -16
-21 6 3 13 10 49 16 82 5 32 14 64 19 70 13 16 7 649 -7 716 -10 45 -9 58 3
77 8 12 15 32 15 43 0 17 -3 19 -19 11 -17 -10 -20 -5 -31 39 -11 48 -11 50
20 88 20 25 30 48 28 63 -3 23 -3 23 -39 -9 l-35 -31 -13 50 -13 49 51 56 c32
35 51 65 51 80 0 13 -3 24 -6 24 -3 0 -29 -23 -59 -51 -29 -27 -55 -46 -58
-42 -2 4 -10 25 -17 46 l-12 38 76 79 c54 57 76 87 76 105 0 35 -17 24 -100
-59 -35 -36 -67 -66 -71 -66 -3 0 -13 19 -22 42 l-17 41 105 108 c79 81 105
114 105 134 0 36 -16 25 -130 -89 -52 -53 -97 -96 -101 -96 -3 0 -14 18 -24
40 l-18 40 136 139 c105 107 137 145 137 165 0 14 -3 26 -7 26 -3 0 -71 -64
-149 -141 l-143 -142 -20 34 c-12 19 -21 38 -21 43 0 6 77 87 170 182 135 136
170 177 170 198 0 22 -3 25 -17 17 -10 -5 -92 -84 -183 -175 -91 -91 -168
-166 -172 -166 -3 0 -16 16 -28 36 l-23 35 212 213 c168 170 211 218 211 239
0 15 -3 27 -7 27 -4 0 -105 -98 -225 -217 l-218 -218 -25 30 c-13 17 -24 34
-25 40 0 5 113 122 250 260 201 203 250 257 250 278 0 15 -3 27 -7 27 -4 0
-125 -117 -269 -261 l-261 -261 -28 37 -28 36 296 298 c243 243 297 302 297
325 0 22 -3 25 -17 17 -10 -5 -151 -143 -313 -305 l-294 -296 -33 32 -33 32
345 346 c282 283 345 351 345 373 0 15 -3 27 -7 27 -4 0 -167 -160 -363 -355
l-356 -355 -32 33 -32 33 331 329 c182 182 335 338 340 348 8 14 5 17 -18 17
-22 0 -85 -59 -357 -329 l-331 -330 -34 31 -34 30 292 292 c160 160 291 295
291 299 0 4 -12 7 -27 7 -21 0 -80 -53 -308 -280 -154 -154 -285 -280 -290
-280 -6 0 -23 12 -39 26 l-29 26 247 247 c135 136 246 250 246 254 0 4 -12 7
-27 7 -21 0 -74 -47 -267 -239 l-241 -239 -38 26 -38 25 205 207 c114 113 206
209 206 213 0 4 -12 7 -26 7 -22 0 -68 -41 -228 -199 l-201 -199 -38 26 -38
25 166 167 c91 91 165 169 165 173 0 4 -12 7 -26 7 -21 0 -62 -35 -189 -161
l-163 -161 -41 24 -40 24 120 120 c140 139 151 154 113 154 -20 0 -56 -29
-154 -126 l-128 -125 -42 21 -42 22 96 97 c53 54 96 101 96 105 0 3 -11 6 -26
6 -18 0 -51 -25 -122 -94 l-97 -94 -40 16 c-22 8 -42 17 -44 19 -2 1 26 34 62
72 37 38 67 72 67 75 0 3 -11 6 -25 6 -17 0 -47 -21 -94 -66 l-70 -66 -38 12
c-21 7 -42 15 -46 17 -4 3 10 25 33 49 22 24 40 46 40 49 0 3 -11 5 -24 5 -13
0 -43 -18 -70 -41 l-46 -41 -50 12 -50 12 21 26 21 27 -21 3 c-12 2 -35 -6
-51 -18 -24 -17 -39 -21 -68 -15 -57 10 -73 16 -67 25 3 5 -25 8 -62 8 -38 0
-189 2 -338 5 -148 3 -295 2 -325 -2z m-30 -1264 c0 -39 -5 -48 -55 -97 -38
-37 -71 -60 -103 -70 -43 -14 -47 -18 -50 -51 -3 -30 -18 -50 -97 -129 l-95
-95 0 65 0 65 177 177 c197 197 223 213 223 135z m-260 -102 c-127 -128 -135
-134 -138 -108 -12 94 66 193 181 229 103 32 100 22 -43 -121z m1302 119 c5
-4 -27 -44 -73 -90 -71 -71 -89 -84 -116 -84 -30 0 -33 2 -33 32 0 26 12 45
63 96 61 62 63 63 105 58 24 -3 48 -9 54 -12z m112 -63 c20 -22 20 -22 -48
-90 -67 -67 -69 -68 -87 -50 -11 11 -28 19 -39 19 -11 0 -20 3 -20 7 0 4 32
40 72 80 76 76 82 78 122 34z m60 -88 c21 -76 23 -72 -84 -178 l-100 -100 0
65 0 65 82 82 c46 46 86 83 90 83 3 0 9 -8 12 -17z m-83 -377 l-101 -101 0 65
0 65 98 98 97 98 3 -63 3 -62 -100 -100z m-1435 -35 l-96 -96 0 65 0 65 93 93
92 93 3 -63 3 -62 -95 -95z m1435 -165 l-101 -101 0 65 0 65 98 98 97 98 3
-63 3 -62 -100 -100z m-1435 -35 l-96 -96 0 65 0 65 93 93 92 93 3 -63 3 -62
-95 -95z m1435 -165 l-101 -101 0 65 0 65 98 98 97 98 3 -63 3 -62 -100 -100z
m-1532 -130 c-183 -182 -212 -200 -87 -54 67 79 88 116 88 155 0 22 20 48 93
121 l92 93 3 -63 3 -62 -192 -190z m1566 -34 l-70 -72 -17 22 c-38 49 -35 55
58 150 l89 89 5 -58 5 -58 -70 -73z m-1380 49 c-5 -29 -37 -67 -168 -198 -89
-90 -164 -163 -168 -163 -4 0 -17 16 -30 36 l-22 36 194 194 c191 191 194 194
197 162 2 -17 1 -48 -3 -67z m1535 -91 c0 -3 -29 -35 -65 -70 l-65 -65 -32 33
-33 32 70 70 69 69 28 -32 c15 -17 27 -34 28 -37z m69 -69 c12 -16 21 -33 21
-38 0 -4 -86 -94 -191 -198 l-191 -190 5 52 c3 29 13 67 22 85 16 31 292 318
307 318 4 0 16 -13 27 -29z m37 -136 c-4 -14 -44 -65 -90 -114 -84 -88 -116
-134 -116 -168 0 -10 -43 -61 -95 -113 l-95 -95 0 65 0 65 197 197 c108 109
199 195 201 193 3 -2 2 -16 -2 -30z m-1771 -5 l29 -31 -69 -69 -70 -70 -29 36
-28 36 63 64 c35 35 66 64 69 64 4 0 19 -14 35 -30z m97 -117 l17 -29 -84 -84
-85 -85 0 33 c0 18 -5 43 -11 54 -10 18 -3 29 57 89 71 72 76 73 106 22z m47
-168 c1 -26 -14 -46 -99 -130 l-100 -100 0 65 0 65 93 93 c91 91 92 92 98 65
4 -15 7 -42 8 -58z m1327 -304 l-96 -96 0 65 0 65 93 93 92 93 3 -63 3 -62
-95 -95z m-1425 -25 l-101 -101 0 65 0 65 98 98 97 98 3 -63 3 -62 -100 -100z
m1425 -175 l-96 -96 0 65 0 65 93 93 92 93 3 -63 3 -62 -95 -95z m-1425 -25
l-101 -101 0 65 0 65 98 98 97 98 3 -63 3 -62 -100 -100z m1320 -280 l-201
-201 0 66 c0 62 2 66 38 101 25 25 50 37 79 42 85 12 93 19 93 78 l0 53 93 93
92 93 3 -63 3 -62 -200 -200z m-1313 87 c-99 -100 -108 -101 -108 -23 0 43 3
48 98 143 l97 98 3 -63 3 -62 -93 -93z m1512 -24 l0 -61 -82 -84 c-85 -87
-101 -96 -197 -107 l-44 -6 159 160 c87 87 160 159 161 159 2 0 3 -28 3 -61z
m-1402 -37 c15 -11 9 -20 -54 -83 l-70 -70 -32 32 -32 33 82 83 83 84 3 -33
c2 -18 11 -39 20 -46z m182 -35 c0 -7 -37 -49 -82 -94 l-83 -81 -49 15 -49 14
79 80 c78 79 79 79 131 79 36 0 53 -4 53 -13z"/>
<path d="M203 4958 c-174 -172 -196 -198 -191 -231 3 -19 32 5 192 163 103
102 192 193 197 203 8 14 5 17 -17 17 -21 0 -60 -33 -181 -152z"/>
<path d="M303 4858 c-140 -139 -264 -265 -275 -281 -10 -15 -18 -37 -16 -50 3
-18 49 23 292 263 158 157 292 293 297 303 8 14 5 17 -17 17 -22 0 -75 -47
-281 -252z"/>
<path d="M402 4758 c-194 -194 -362 -365 -373 -381 -11 -15 -19 -37 -17 -50 4
-18 67 40 392 363 213 212 392 393 397 403 8 14 5 17 -18 17 -22 0 -89 -62
-381 -352z"/>
<path d="M502 4658 c-249 -249 -462 -465 -473 -481 -11 -15 -19 -37 -17 -50 4
-18 84 57 492 463 268 267 492 493 497 503 8 14 5 17 -18 17 -22 0 -104 -76
-481 -452z"/>
<path d="M602 4558 c-304 -304 -562 -565 -573 -581 -11 -15 -19 -37 -17 -50 4
-18 101 75 592 563 323 322 592 593 597 603 8 14 5 17 -18 17 -23 0 -118 -91
-581 -552z"/>
<path d="M702 4458 c-359 -359 -662 -665 -673 -681 -11 -15 -19 -37 -17 -50 4
-18 118 92 692 663 378 377 692 693 697 703 8 14 5 17 -18 17 -23 0 -133 -106
-681 -652z"/>
<path d="M4396 750 c-394 -393 -722 -723 -727 -732 -8 -15 -5 -18 18 -18 23 0
137 110 711 683 376 375 692 694 703 710 11 15 19 37 17 50 -4 18 -124 -97
-722 -693z"/>
<path d="M4496 650 c-339 -338 -622 -623 -627 -632 -8 -15 -5 -18 18 -18 23 0
123 95 611 583 321 320 592 594 603 610 11 15 19 37 17 50 -4 18 -106 -80
-622 -593z"/>
<path d="M4596 550 c-284 -283 -522 -523 -527 -533 -8 -14 -5 -17 18 -17 23 0
108 81 511 483 266 265 492 494 503 510 11 15 19 37 17 50 -4 18 -89 -62 -522
-493z"/>
<path d="M4696 450 c-229 -228 -422 -423 -427 -432 -8 -15 -5 -18 18 -18 22 0
93 66 411 383 211 210 392 394 403 410 11 15 19 37 17 50 -4 18 -72 -45 -422
-393z"/>
<path d="M4796 350 c-174 -173 -322 -323 -327 -332 -8 -15 -5 -18 17 -18 23 0
80 52 312 282 156 156 293 295 303 311 11 15 19 37 17 50 -4 18 -54 -28 -322
-293z"/>
<path d="M4896 250 c-119 -118 -222 -223 -227 -232 -8 -15 -5 -18 17 -18 21 0
65 37 211 183 205 202 226 227 221 260 -3 19 -37 -11 -222 -193z"/>
<path d="M4996 150 c-136 -133 -149 -150 -111 -150 18 0 49 23 111 82 102 98
127 130 122 161 -3 19 -19 7 -122 -93z"/>
</g>
</svg>
