<?xml version="1.0" standalone="no"?>
<!DOCTYPE svg PUBLIC "-//W3C//DTD SVG 20010904//EN"
 "http://www.w3.org/TR/2001/REC-SVG-20010904/DTD/svg10.dtd">
<svg version="1.0" xmlns="http://www.w3.org/2000/svg"
 width="1600.000000pt" height="1600.000000pt" viewBox="0 0 1600.000000 1600.000000"
 preserveAspectRatio="xMidYMid meet">
<metadata>
Created by potrace 1.15, written by Peter Selinger 2001-2017
</metadata>
<g transform="translate(0.000000,1600.000000) scale(0.100000,-0.100000)"
fill="#000000" stroke="none">
<path d="M361 15984 c-162 -43 -303 -187 -346 -349 -13 -53 -15 -695 -15
-6000 0 -6303 -2 -5971 43 -6076 57 -131 210 -251 356 -279 36 -7 992 -10
2857 -10 l2804 0 0 -300 0 -300 -1762 0 -1763 -1 -960 -1205 c-528 -663 -961
-1210 -963 -1215 -2 -5 2867 -9 7268 -9 6922 0 7270 1 7261 18 -6 9 -439 555
-963 1212 l-954 1195 -1762 3 -1762 2 0 300 0 300 2806 0 c3113 0 2882 -5
3001 66 117 71 203 181 235 303 16 62 17 424 17 5996 1 5226 -1 5938 -14 5988
-47 181 -178 313 -360 363 -77 21 -14945 20 -15024 -2z m13820 -1220 c143 -42
252 -132 316 -260 l38 -78 3 -4765 c2 -4335 1 -4771 -14 -4821 -24 -85 -62
-146 -130 -210 -68 -63 -138 -101 -229 -125 -53 -13 -728 -15 -6285 -15 -5517
0 -6232 2 -6289 15 -169 40 -310 169 -355 325 -15 51 -16 477 -14 4830 l3
4775 34 70 c59 122 183 223 318 260 40 11 1148 13 6299 14 5694 1 6255 0 6305
-15z"/>
<path d="M4047 11262 l-1627 -1627 1630 -1630 1630 -1630 437 438 438 437
-1193 1193 -1192 1192 1192 1192 1193 1193 -435 435 c-239 239 -437 435 -440
435 -3 0 -737 -732 -1633 -1628z"/>
<path d="M9632 12457 l-432 -432 1195 -1195 1195 -1195 -1192 -1192 -1193
-1193 438 -437 437 -438 1625 1625 c894 894 1625 1629 1625 1635 0 13 -3242
3255 -3255 3255 -6 0 -205 -195 -443 -433z"/>
</g>
</svg>
